# This file uses meters as units for non-parametric coordinates.

mtllib Cozinha_Chao_UPDATE.mtl
g default
v 182.700191 -8.609636 134.603018
v 514.263943 -8.609636 134.603018
v 182.700191 1.058059 134.603018
v 514.263943 1.058059 134.603018
v 182.700191 1.058059 -331.183004
v 514.263943 1.058059 -331.183004
v 182.700191 -8.609636 -331.183004
v 514.263943 -8.609636 -331.183004
v 170.497175 -8.609636 145.968438
v 526.466945 -8.609636 145.968438
v 526.466945 1.058059 145.968438
v 170.497175 1.058059 145.968438
v 170.497175 1.058059 -342.548478
v 526.466945 1.058059 -342.548478
v 526.466945 -8.609636 -342.548478
v 170.497175 -8.609636 -342.548478
v 409.537605 203.277975 134.603018
v 409.537605 1.058059 134.603018
v 408.151313 1.058059 -331.183004
v 412.543645 1.058059 -342.548424
v 412.543645 -8.609636 -342.548424
v 408.151313 -8.609636 -331.183004
v 408.151313 -8.609636 134.603018
v 408.111090 -8.609636 145.968438
v 409.497381 1.058059 145.968438
v 308.082644 203.277975 134.603018
v 308.082644 1.058059 134.603018
v 308.082644 1.058059 -331.183004
v 305.108829 1.058059 -342.548424
v 305.108829 -8.609636 -342.548424
v 308.082644 -8.609636 -331.183004
v 308.082644 -8.609636 134.603018
v 308.825503 -8.609636 145.968438
v 307.788149 1.058059 145.968438
v 307.788149 203.711275 145.968438
v 409.497381 203.711275 145.968438
v 308.082644 111.833790 134.603018
v 307.788149 112.071163 145.968438
v 207.869537 1.058059 -331.183004
v 207.869537 1.058059 134.603018
v 197.886024 1.058059 145.968438
v 198.079415 -8.609636 145.968438
v 207.869537 -8.609636 134.603018
v 207.869537 -8.609636 -331.183004
v 197.386728 -8.609636 -342.548478
v 197.386728 1.058059 -342.548478
vt 0.084889 0.039729
vt 0.084889 0.001992
vt 0.085636 0.001992
vt 0.085636 0.039729
vt 0.090286 0.039729
vt 0.090286 0.001992
vt 0.091032 0.001992
vt 0.091032 0.039729
vt 0.160441 0.004455
vt 0.161319 0.003791
vt 0.166508 0.010962
vt 0.165641 0.011639
vt 0.105898 0.219241
vt 0.224656 0.220849
vt 0.217299 0.772901
vt 0.098546 0.771407
vt 0.094714 0.205571
vt 0.224479 0.207386
vt 0.344898 0.222475
vt 0.335934 0.774512
vt 0.213591 0.786308
vt 0.085962 0.784733
vt 0.076093 0.218819
vt 0.068708 0.771027
vt 0.061809 0.205135
vt 0.345044 0.209006
vt 0.468917 0.224152
vt 0.461806 0.776211
vt 0.340950 0.788057
vt 0.054061 0.784310
vt 0.483547 0.210874
vt 0.476103 0.789875
vt 0.609796 0.219241
vt 0.728536 0.220691
vt 0.721157 0.772229
vt 0.602633 0.770545
vt 0.597771 0.205861
vt 0.725188 0.207176
vt 0.847126 0.222329
vt 0.839721 0.774013
vt 0.721829 0.785689
vt 0.590860 0.783843
vt 0.581601 0.219241
vt 0.572868 0.770102
vt 0.567388 0.205611
vt 0.852512 0.208942
vt 0.972787 0.224068
vt 0.965523 0.775815
vt 0.839476 0.787489
vt 0.558223 0.783319
vt 0.987416 0.210802
vt 0.979808 0.789482
vt 0.018228 0.920860
vt 0.012193 0.611335
vt 0.039278 0.613709
vt 0.045264 0.920874
vt 0.006785 0.333648
vt 0.033735 0.329246
vt 0.019725 0.998008
vt 0.046765 0.997481
vt 0.000343 0.002921
vt 0.027358 0.002395
vt 0.052510 0.889066
vt 0.052896 0.592850
vt 0.079160 0.592849
vt 0.079546 0.889066
vt 0.053132 0.304634
vt 0.078924 0.304634
vt 0.052540 0.964105
vt 0.079516 0.964105
vt 0.053200 0.002311
vt 0.078856 0.002311
vt 0.171234 0.011090
vt 0.171234 0.003791
vt 0.172053 0.003787
vt 0.172053 0.011118
vn 0.000000 0.000000 1.000000
vn 0.000000 0.000000 1.000000
vn 0.000000 0.000000 1.000000
vn 0.000000 0.000000 1.000000
vn 0.000000 1.000000 0.000000
vn 0.000000 1.000000 -0.000000
vn 0.000000 1.000000 -0.000000
vn 0.000000 1.000000 0.000000
vn 0.000000 0.000000 -1.000000
vn 0.000000 0.000000 -1.000000
vn 0.000000 0.000000 -1.000000
vn 0.000000 0.000000 -1.000000
vn 0.000000 -1.000000 0.000000
vn 0.000000 -1.000000 0.000000
vn 0.000000 -1.000000 0.000000
vn 0.000000 -1.000000 0.000000
vn 1.000000 0.000000 0.000000
vn 1.000000 0.000000 0.000000
vn 1.000000 0.000000 0.000000
vn 1.000000 0.000000 0.000000
vn -1.000000 0.000000 0.000000
vn -1.000000 0.000000 0.000000
vn -1.000000 0.000000 0.000000
vn -1.000000 0.000000 0.000000
vn 0.000000 -1.000000 0.000000
vn 0.000000 -1.000000 0.000000
vn 0.000000 -1.000000 0.000000
vn 0.000000 -1.000000 0.000000
vn 0.000000 -1.000000 0.000000
vn 0.000000 -1.000000 0.000000
vn 0.000000 -1.000000 0.000000
vn 0.000000 -1.000000 0.000000
vn 0.000000 -1.000000 0.000000
vn 0.000000 -1.000000 0.000000
vn 0.000000 -1.000000 0.000000
vn 0.000000 -1.000000 0.000000
vn 0.000000 -1.000000 0.000000
vn 0.000000 -1.000000 0.000000
vn 0.000000 -1.000000 0.000000
vn 0.000000 -1.000000 0.000000
vn 0.000000 1.000000 -0.000000
vn 0.000000 1.000000 -0.000000
vn 0.000000 1.000000 0.000000
vn 0.000000 1.000000 0.000000
vn -0.000000 0.000000 -1.000000
vn -0.000000 0.000000 -1.000000
vn -0.000000 0.000000 -1.000000
vn -0.000000 0.000000 -1.000000
vn 0.000000 -1.000000 -0.000000
vn 0.000000 -1.000000 -0.000000
vn 0.000000 -1.000000 -0.000000
vn 0.000000 -1.000000 -0.000000
vn 0.000000 -1.000000 0.000000
vn 0.000000 -1.000000 0.000000
vn 0.000000 -1.000000 0.000000
vn 0.000000 -1.000000 0.000000
vn 0.000000 -1.000000 0.000000
vn 0.000000 -1.000000 0.000000
vn 0.000000 -1.000000 0.000000
vn 0.000000 -1.000000 0.000000
vn 0.000000 0.000000 1.000000
vn 0.000000 0.000000 1.000000
vn 0.000000 0.000000 1.000000
vn 0.000000 0.000000 1.000000
vn 0.000000 1.000000 0.000000
vn 0.000000 1.000000 0.000000
vn 0.000000 1.000000 0.000000
vn 0.000000 1.000000 0.000000
vn 0.000000 -0.999274 0.038096
vn 0.000000 -0.999274 0.038096
vn 0.000000 -0.999274 0.038096
vn 0.000000 -0.999274 0.038096
vn 0.999664 0.000000 0.025903
vn 0.999664 0.000000 0.025903
vn 0.999664 0.000000 0.025903
vn 0.999664 0.000000 0.025903
vn 0.000000 1.000000 0.000000
vn 0.000000 1.000000 0.000000
vn 0.000000 0.000000 1.000000
vn 0.000000 0.000000 1.000000
vn 0.000000 -1.000000 0.000000
vn 0.000000 -1.000000 0.000000
vn 0.000000 -1.000000 0.000000
vn 0.000000 -1.000000 0.000000
vn 0.000000 -1.000000 0.000000
vn 0.000000 -1.000000 0.000000
vn 0.000000 0.000000 -1.000000
vn 0.000000 0.000000 -1.000000
vn 0.000000 1.000000 0.000000
vn 0.000000 1.000000 0.000000
vn 0.000000 1.000000 0.000000
vn 0.000000 1.000000 0.000000
vn 0.000000 1.000000 0.000000
vn 0.000000 1.000000 0.000000
vn 0.000000 1.000000 0.000000
vn 0.000000 1.000000 0.000000
vn 0.000000 1.000000 -0.000000
vn 0.000000 1.000000 -0.000000
vn 0.000000 1.000000 -0.000000
vn 0.000000 1.000000 -0.000000
vn 0.000000 1.000000 0.000000
vn 0.000000 1.000000 0.000000
vn 0.000000 1.000000 0.000000
vn 0.000000 1.000000 0.000000
vn 0.000000 1.000000 0.000000
vn 0.000000 1.000000 0.000000
vn 0.000000 1.000000 0.000000
vn 0.000000 1.000000 0.000000
vn 0.000000 1.000000 0.000000
vn 0.000000 1.000000 0.000000
vn 0.000000 1.000000 0.000000
vn 0.000000 1.000000 0.000000
vn 0.000000 1.000000 -0.000000
vn 0.000000 1.000000 -0.000000
vn 0.000000 1.000000 -0.000000
vn 0.000000 1.000000 -0.000000
vn 0.000000 1.000000 -0.000000
vn 0.000000 1.000000 -0.000000
vn 0.000000 1.000000 -0.000000
vn 0.000000 1.000000 -0.000000
vn 0.000000 1.000000 -0.000000
vn 0.000000 1.000000 -0.000000
vn 0.000000 1.000000 -0.000000
vn 0.000000 1.000000 -0.000000
s 1
g chao_cozinha pasted__Parede group3
usemtl initialShadingGroup
f 42/53/1 33/54/2 34/55/3 41/56/4
s 2
f 40/13/5 27/14/6 28/15/7 39/16/8
s 3
f 46/63/9 29/64/10 30/65/11 45/66/12
s 4
f 44/33/13 31/34/14 32/35/15 43/36/16
s off
f 10/1/17 15/2/18 14/3/19 11/4/20
f 16/5/21 9/6/22 12/7/23 13/8/24
s 5
f 43/36/25 32/35/26 33/41/27 42/42/28
s 6
f 31/34/29 44/33/30 45/37/31 30/38/32
s off
f 2/48/33 8/47/34 15/51/35 10/52/36
f 7/43/37 1/44/38 9/50/39 16/45/40
s 2
f 19/20/41 18/19/42 4/27/43 6/28/44
s 3
f 21/68/45 20/67/46 14/71/47 15/72/48
s 6
f 8/47/49 22/39/50 21/46/51 15/51/52
s 4
f 23/40/53 22/39/54 8/47/55 2/48/56
s 5
f 24/49/57 23/40/58 2/48/59 10/52/60
s 1
f 25/58/61 24/57/62 10/61/63 11/62/64
s 2
f 28/15/7 27/14/6 18/19/42 19/20/41
s 3
f 30/65/11 29/64/10 20/67/46 21/68/45
s 6
f 22/39/50 31/34/29 30/38/32 21/46/51
s 4
f 32/35/15 31/34/14 22/39/54 23/40/53
s 5
f 33/41/27 32/35/26 23/40/58 24/49/57
s 1
f 34/55/3 33/54/2 24/57/62 25/58/61
s off
f 18/19/65 27/14/66 34/18/67 25/26/68
f 26/73/69 17/74/70 36/75/71 35/76/72
f 38/9/73 37/10/74 26/11/75 35/12/76
s 2
f 3/23/77 40/13/5 39/16/8 5/24/78
s 1
f 9/59/79 42/53/1 41/56/4 12/60/80
s 5
f 1/44/81 43/36/25 42/42/28 9/50/82
s 4
f 7/43/83 44/33/13 43/36/16 1/44/84
s 6
f 45/37/31 44/33/30 7/43/85 16/45/86
s 3
f 13/69/87 46/63/9 45/66/12 16/70/88
s off
f 28/15/89 19/20/90 20/29/91 29/21/92
f 39/16/93 28/15/94 29/21/95 46/22/96
f 19/20/97 6/28/98 14/32/99 20/29/100
f 6/28/101 4/27/102 11/31/103 14/32/104
f 3/23/105 5/24/106 13/30/107 12/25/108
f 39/16/109 46/22/110 13/30/111 5/24/112
f 40/13/113 3/23/114 12/25/115 41/17/116
f 27/14/117 40/13/118 41/17/119 34/18/120
f 4/27/121 18/19/122 25/26/123 11/31/124
