# This file uses meters as units for non-parametric coordinates.

mtllib Cozinha_Parede_UPDATE.mtl
g default
v 308.825503 225.296390 145.968438
v 308.082644 225.296390 134.603018
v 202.877866 225.296390 134.603018
v 202.877780 225.296390 145.968438
v 207.724483 225.296390 -331.183004
v 302.077608 225.296390 -331.183004
v 302.077577 225.296390 -342.548411
v 207.724382 225.296390 -342.548478
v 514.263943 225.296390 -331.183004
v 514.263943 225.296390 134.603018
v 526.466959 225.296390 145.968438
v 526.466959 225.296390 -342.548478
v 182.700277 225.296390 134.603018
v 182.700277 225.296390 -331.183004
v 170.497276 225.296390 -342.548478
v 170.497276 225.296390 145.968438
v 308.082644 -5.058011 134.603018
v 202.877866 -5.058011 134.603018
v 202.877866 105.316450 134.603018
v 308.082644 105.717697 134.603018
v 202.877780 -5.058011 145.968438
v 307.788149 -5.058011 145.968438
v 307.788149 105.955093 145.968438
v 202.877780 105.553846 145.968438
v 207.724483 -5.058011 -331.183004
v 300.577496 -5.058011 -331.183004
v 301.258667 105.224588 -331.183004
v 207.450774 105.224588 -331.183004
v 300.577467 -5.058011 -342.548411
v 207.724382 -5.058011 -342.548478
v 207.927557 105.461937 -342.548478
v 301.595764 105.461937 -342.548411
v 514.263943 -5.058011 -331.183004
v 514.263943 -5.058011 134.603018
v 514.263943 105.224588 134.603018
v 514.263943 105.224588 -331.183004
v 526.466959 -5.058011 145.968438
v 526.466959 -5.058011 -342.548478
v 526.466959 105.461937 -342.548478
v 526.466959 105.461937 145.968438
v 182.700277 -5.058011 134.603018
v 182.700277 -5.058011 -331.183004
v 182.700277 105.224588 -331.183004
v 182.700277 105.224588 134.603018
v 170.497276 -5.058011 -342.548478
v 170.497276 -5.058011 145.968438
v 170.497276 105.461937 145.968438
v 170.497276 105.461937 -342.548478
v 514.263943 196.261672 -331.183004
v 514.263943 196.261672 134.603018
v 207.724483 196.261672 -331.183004
v 302.758778 196.261672 -331.183004
v 182.700277 196.261672 134.603018
v 182.700277 196.261672 -331.183004
v 308.082644 197.161882 134.603018
v 202.877866 196.429441 134.603018
v 409.537598 197.161882 134.603018
v 408.151313 225.296390 134.603018
v 409.537598 -5.058011 134.603018
v 409.537598 105.717697 134.603018
v 388.427521 105.224588 -331.183004
v 388.427521 -5.058011 -331.183004
v 388.427521 225.296390 -331.183004
v 388.427521 196.261672 -331.183004
v 388.427564 225.296390 -342.548411
v 388.427564 -5.058011 -342.548411
v 388.427564 105.461937 -342.548411
v 409.497381 105.955093 145.968438
v 409.497381 -5.058011 145.968438
v 408.111090 225.296390 145.968438
v 202.877780 196.862740 145.968438
v 307.788149 197.595134 145.968438
v 170.497276 196.694925 -342.548478
v 170.497276 196.694925 145.968438
v 301.595764 196.694925 -342.548411
v 207.927557 196.694925 -342.548478
v 388.427564 196.694925 -342.548411
v 526.466959 196.694925 -342.548478
v 526.466959 196.694925 145.968438
v 409.497381 197.595134 145.968438
vt 0.709392 0.378204
vt 0.709392 -0.303998
vt 0.870915 -0.303995
vt 0.870915 0.378202
vt 1.004257 -0.303998
vt 1.004259 0.378210
vt 1.046779 -0.303991
vt 1.046777 0.378194
vt 0.886745 0.021657
vt 0.886745 0.002091
vt 0.891172 0.002091
vt 0.891172 0.021657
vt 0.894826 0.002090
vt 0.894826 0.021657
vt 0.895971 0.002091
vt 0.895971 0.021657
vt 0.721468 0.422271
vt 0.721470 -0.301205
vt 0.892765 -0.301203
vt 0.892765 0.422267
vt 1.034168 -0.301201
vt 1.034170 0.422275
vt 1.079269 -0.301200
vt 1.079267 0.422260
vt 0.870525 0.021657
vt 0.870525 0.002091
vt 0.874952 0.002091
vt 0.874952 0.021657
vt 0.878606 0.002092
vt 0.878605 0.021658
vt 0.879752 0.002090
vt 0.879752 0.021656
vt 0.891474 0.048804
vt 0.890000 0.029577
vt 0.891985 0.029501
vt 0.891986 0.049056
vt 0.887724 0.040948
vt 0.886745 0.041471
vt 0.702010 0.003861
vt 0.697699 0.164422
vt 0.681288 0.164769
vt 0.685486 0.003430
vt 0.702020 0.295745
vt 0.685681 0.296909
vt 0.847096 0.136284
vt 0.847096 0.004000
vt 0.863582 0.003656
vt 0.863582 0.135655
vt 0.919962 0.072288
vt 0.919187 0.072259
vt 0.919186 0.066055
vt 0.919961 0.066071
vt 0.908146 0.003656
vt 0.908118 0.004111
vt 0.904381 0.004094
vt 0.904017 0.003674
vt 0.911848 0.003671
vt 0.911850 0.004096
vt 0.903452 0.004111
vt 0.902966 0.003657
vt 0.915799 0.004110
vt 0.916282 0.003661
vt 0.903453 0.022768
vt 0.902966 0.023222
vt 0.915799 0.022769
vt 0.916282 0.023218
vt 0.904382 0.022784
vt 0.903993 0.023205
vt 0.912011 0.023207
vt 0.911848 0.022782
vt 0.908118 0.022782
vt 0.908008 0.023206
vt 0.877660 0.048000
vt 0.881567 0.048002
vt 0.882048 0.048451
vt 0.877654 0.048432
vt 0.881564 0.029344
vt 0.882046 0.028895
vt 0.877614 0.029328
vt 0.877777 0.028906
vt 0.873883 0.029327
vt 0.873772 0.028905
vt 0.870146 0.029324
vt 0.869757 0.028904
vt 0.869218 0.029340
vt 0.868730 0.028886
vt 0.869211 0.047998
vt 0.868723 0.048452
vt 0.870139 0.048015
vt 0.869768 0.048434
vt 0.873877 0.048014
vt 0.873866 0.048437
vt 1.052704 0.120500
vt 1.048811 0.248923
vt 0.887729 0.252830
vt 0.891507 0.107663
vt 1.049961 0.286021
vt 0.887965 0.290612
vt 0.750323 0.250281
vt 0.752586 0.104205
vt 0.749425 0.288055
vt 0.707886 0.248538
vt 0.714130 0.104633
vt 0.705741 0.286249
vt 0.745351 -0.021897
vt 0.708361 -0.019496
vt 0.747109 -0.169721
vt 0.705653 -0.169127
vt 0.877933 -0.168799
vt 0.873694 -0.018300
vt 1.038824 -0.164435
vt 1.033650 -0.011709
vt 0.340663 0.471370
vt 0.340840 0.312145
vt 0.501674 0.312342
vt 0.501044 0.471062
vt 0.633918 0.312858
vt 0.632540 0.471178
vt 0.340766 0.511060
vt 0.500935 0.510634
vt 0.673580 0.311433
vt 0.673467 0.470954
vt 0.632257 0.510607
vt 0.634127 0.168287
vt 0.673420 0.170237
vt 0.673353 0.510686
vt 0.617753 0.312412
vt 0.617952 0.168210
vt 0.632795 0.002734
vt 0.673282 0.002715
vt 0.293170 0.961468
vt 0.293183 0.816164
vt 0.453091 0.826085
vt 0.453073 0.962097
vt 0.453103 0.671109
vt 0.293223 0.671067
vt 0.469575 0.825595
vt 0.469564 0.961415
vt 0.293166 0.997960
vt 0.453066 0.997991
vt 0.293229 0.517217
vt 0.453142 0.517229
vt 0.585071 0.962114
vt 0.585066 0.998000
vt 0.585108 0.671114
vt 0.585124 0.517244
vt 0.627169 0.961514
vt 0.627166 0.998008
vt 0.627207 0.671119
vt 0.627229 0.517268
vt 0.585089 0.826099
vt 0.627189 0.816211
vt 0.335703 0.322789
vt 0.335717 0.478901
vt 0.175551 0.463641
vt 0.175536 0.327897
vt 0.335724 0.517873
vt 0.175556 0.517890
vt 0.335683 0.167091
vt 0.175517 0.167113
vt 0.043334 0.517904
vt 0.043333 0.463655
vt 0.043321 0.327910
vt 0.043297 0.167126
vt 0.335672 0.001992
vt 0.175503 0.002012
vt 0.001890 0.478934
vt 0.001893 0.517910
vt 0.001870 0.322825
vt 0.001855 0.167127
vt 0.043286 0.002021
vt 0.001836 0.002030
vt 0.911979 0.057942
vt 0.911977 0.053746
vt 0.916398 0.053743
vt 0.916401 0.057921
vt 0.911982 0.061406
vt 0.916403 0.061370
vt 0.836692 0.173509
vt 0.707634 0.173509
vt 0.707634 0.021973
vt 0.836692 0.021973
vt 0.910630 0.066748
vt 0.910630 0.070247
vt 0.910175 0.070230
vt 0.910175 0.066736
vn 0.000000 1.000000 0.000000
vn 0.000000 1.000000 0.000000
vn 0.000000 1.000000 0.000000
vn 0.000000 1.000000 0.000000
vn 0.000000 1.000000 -0.000001
vn 0.000000 1.000000 -0.000000
vn 0.000000 1.000000 -0.000000
vn 0.000000 1.000000 -0.000001
vn 0.000000 1.000000 0.000000
vn 0.000000 1.000000 0.000000
vn 0.000000 1.000000 0.000000
vn 0.000000 1.000000 0.000000
vn 0.000000 1.000000 0.000000
vn 0.000000 1.000000 0.000000
vn 0.000000 1.000000 0.000000
vn 0.000000 1.000000 0.000000
vn 0.000000 0.000000 -1.000000
vn 0.000000 0.000000 -1.000000
vn 0.000000 0.000000 -1.000000
vn 0.000000 0.000000 -1.000000
vn 0.000000 0.000000 1.000000
vn 0.000000 0.000000 1.000000
vn 0.000000 0.000000 1.000000
vn 0.000000 0.000000 1.000000
vn 0.000000 0.000000 1.000000
vn 0.000000 0.000000 1.000000
vn 0.000000 0.000000 1.000000
vn 0.000000 0.000000 1.000000
vn 0.000000 -0.000000 -1.000000
vn 0.000001 -0.000000 -1.000000
vn 0.000001 -0.000000 -1.000000
vn 0.000000 -0.000000 -1.000000
vn -1.000000 0.000000 0.000000
vn -1.000000 0.000000 0.000000
vn -1.000000 0.000000 0.000000
vn -1.000000 0.000000 0.000000
vn 1.000000 0.000000 0.000000
vn 1.000000 0.000000 0.000000
vn 1.000000 0.000000 0.000000
vn 1.000000 0.000000 0.000000
vn 1.000000 0.000000 0.000000
vn 1.000000 0.000000 0.000000
vn 1.000000 0.000000 0.000000
vn 1.000000 0.000000 0.000000
vn -1.000000 0.000000 0.000000
vn -1.000000 0.000000 0.000000
vn -1.000000 0.000000 0.000000
vn -1.000000 0.000000 0.000000
vn -1.000000 0.000000 0.000000
vn -1.000000 0.000000 0.000000
vn -1.000000 0.000000 0.000000
vn -1.000000 0.000000 0.000000
vn 0.000000 0.000000 1.000000
vn 0.000000 0.000000 1.000000
vn 0.000000 0.000000 1.000000
vn 0.000000 0.000000 1.000000
vn 1.000000 0.000000 0.000000
vn 1.000000 0.000000 0.000000
vn 1.000000 0.000000 0.000000
vn 1.000000 0.000000 0.000000
vn 0.000000 0.000000 -1.000000
vn 0.000000 0.000000 -1.000000
vn 0.000000 0.000000 -1.000000
vn 0.000000 0.000000 -1.000000
vn -0.000000 0.000000 -1.000000
vn -0.000000 0.000000 -1.000000
vn 0.000000 0.000000 -1.000000
vn 0.000000 0.000000 -1.000000
vn 0.000000 0.000000 -1.000000
vn 0.000000 0.000000 -1.000000
vn -0.000000 0.000000 -1.000000
vn -0.000000 0.000000 -1.000000
vn 0.000000 0.000000 1.000000
vn 0.000000 0.000000 1.000000
vn 0.000000 0.000000 1.000000
vn 0.000000 0.000000 1.000000
vn 0.000000 0.000000 1.000000
vn 0.000000 0.000000 1.000000
vn 0.000000 0.000000 1.000000
vn 0.000000 0.000000 1.000000
vn 0.000000 1.000000 0.000002
vn 0.000000 1.000000 0.000002
vn 0.000000 1.000000 0.000002
vn 0.000000 1.000000 0.000002
vn -0.000001 0.000000 -1.000000
vn -0.000000 0.000000 -1.000000
vn -0.000000 0.000000 -1.000000
vn -0.000001 0.000000 -1.000000
vn 0.000000 0.000000 1.000000
vn -0.000000 0.000000 1.000000
vn -0.000000 0.000000 1.000000
vn 0.000000 0.000000 1.000000
vn 0.000000 1.000000 0.000001
vn 0.000000 1.000000 0.000000
vn 0.000000 1.000000 0.000000
vn 0.000000 1.000000 0.000001
vn 0.000000 0.000000 1.000000
vn 0.000000 0.000000 1.000000
vn 0.000000 0.000000 1.000000
vn 0.000000 0.000000 1.000000
vn -1.000000 0.000000 0.000000
vn -1.000000 0.000000 0.000000
vn -1.000000 0.000000 0.000000
vn -1.000000 0.000000 0.000000
vn 0.000000 -0.000000 -1.000000
vn 0.000000 -0.000000 -1.000000
vn 0.000000 -0.000000 -1.000000
vn 0.000000 -0.000000 -1.000000
vn -0.000000 0.000000 -1.000000
vn -0.000000 0.000000 -1.000000
vn -0.000000 0.000000 -1.000000
vn -0.000000 0.000000 -1.000000
vn 1.000000 0.000000 0.000000
vn 1.000000 0.000000 0.000000
vn 1.000000 0.000000 0.000000
vn 1.000000 0.000000 0.000000
vn 0.000000 0.000000 1.000000
vn 0.000000 0.000000 1.000000
vn 0.000000 0.000000 1.000000
vn 0.000000 0.000000 1.000000
vn -0.999994 0.000000 -0.003538
vn -0.999994 0.000000 -0.003538
vn -0.999994 0.000000 -0.003538
vn -0.999994 0.000000 -0.003538
vn 0.999664 0.000000 0.025903
vn 0.999664 0.000000 0.025903
vn 0.999664 0.000000 0.025903
vn 0.999664 0.000000 0.025903
vn -0.999994 0.000000 -0.003538
vn -0.999994 0.000000 -0.003538
vn 0.000000 0.000000 1.000000
vn 0.000000 0.000000 1.000000
vn 0.000000 0.000000 1.000000
vn 0.000001 0.000000 -1.000000
vn 0.000001 0.000000 -1.000000
vn 0.000001 0.000000 -1.000000
vn 0.000000 0.000000 -1.000000
vn 0.000000 1.000000 0.000000
vn 0.000000 1.000000 0.000000
vn 0.000000 0.000000 1.000000
vn 0.000000 0.000000 1.000000
vn 0.000000 0.000000 1.000000
vn 0.000000 0.000000 1.000000
vn 0.000000 0.000000 -1.000000
vn 0.000000 0.000000 -1.000000
vn 0.000000 0.000000 -1.000000
vn 0.000000 0.000000 -1.000000
vn 0.000000 1.000000 0.000001
vn 0.000000 1.000000 0.000001
vn 0.000000 0.000000 1.000000
vn -0.999298 0.008224 0.036552
vn -0.999298 0.008224 0.036552
vn -0.999298 0.008224 0.036552
vn -0.999298 0.008224 0.036552
vn 0.000000 -0.999274 0.038093
vn 0.000000 -0.999274 0.038093
vn 0.000000 -0.999274 0.038093
vn 0.000000 -0.999274 0.038093
vn 0.999664 0.000000 0.025903
vn 0.999664 0.000000 0.025903
vn 0.999664 0.000000 0.025903
vn 0.999664 0.000000 0.025903
vn 0.000000 -1.000000 -0.000000
vn 0.000000 -1.000000 -0.000000
vn 0.000000 -1.000000 -0.000000
vn 0.000000 -1.000000 -0.000000
vn 0.000000 -1.000000 0.000000
vn 0.000000 -1.000000 0.000000
vn 0.000000 -1.000000 0.000000
vn 0.000000 -1.000000 0.000000
vn 0.000000 -1.000000 0.000000
vn 0.000000 -1.000000 0.000000
vn 0.000000 -1.000000 0.000000
vn 0.000000 -1.000000 0.000000
vn 0.000000 -1.000000 0.000000
vn 0.000000 -1.000000 0.000000
vn 0.000000 -1.000000 0.000000
vn 0.000000 -1.000000 0.000000
vn 0.000000 -1.000000 0.000000
vn 0.000000 -1.000000 0.000000
vn 0.000000 -1.000000 0.000000
vn 0.000000 -1.000000 0.000000
vn 0.000000 -0.999274 -0.038094
vn 0.000000 -0.999274 -0.038094
vn 0.000000 -0.999274 -0.038094
vn 0.000000 -0.999274 -0.038094
vn 0.000000 -1.000000 -0.000000
vn 0.000000 -1.000000 -0.000000
vn 0.000000 -1.000000 -0.000000
vn 0.000000 -1.000000 -0.000000
vn 0.000000 -1.000000 0.000000
vn 0.000000 -1.000000 0.000000
vn 0.000000 -1.000000 0.000000
vn 0.000000 -1.000000 0.000000
vn 0.000000 -1.000000 -0.000000
vn 0.000000 -1.000000 -0.000000
vn 0.000000 -1.000000 -0.000000
vn 0.000000 -1.000000 -0.000000
vn 0.000000 -1.000000 -0.000000
vn 0.000000 -1.000000 -0.000000
vn 0.000000 -1.000000 -0.000000
vn 0.000000 -1.000000 -0.000000
vn -0.000000 0.999782 0.020879
vn -0.000000 0.999782 0.020879
vn -0.000000 0.999782 0.020879
vn -0.000000 0.999782 0.020879
vn 0.999553 -0.001501 0.029851
vn 0.999553 -0.001501 0.029851
vn 0.999553 -0.001501 0.029851
vn 0.999553 -0.001501 0.029851
vn 0.000000 0.000000 -1.000000
vn 0.000000 0.000000 -1.000000
vn 0.000000 0.000000 -1.000000
vn 0.000000 0.000000 -1.000000
s 1
g parede_cozinha pasted__Parede group3
usemtl initialShadingGroup
f 1/53/1 2/54/2 3/55/3 4/56/4
s 2
f 5/67/5 6/71/6 7/72/7 8/68/8
s off
f 9/65/9 10/61/10 11/62/11 12/66/12
f 13/59/13 14/63/14 15/64/15 16/60/16
s 3
f 17/93/17 18/94/18 19/95/19 20/96/20
s 4
f 21/113/21 22/114/22 23/115/23 24/116/24
s 5
f 25/131/25 26/132/26 27/133/27 28/134/28
s 6
f 29/153/29 30/154/30 31/155/31 32/156/32
s 7
f 33/1/33 34/2/34 35/3/35 36/4/36
s 8
f 37/9/37 38/10/38 39/11/39 40/12/40
s 9
f 41/17/41 42/18/42 43/19/43 44/20/44
s 10
f 45/25/45 46/26/46 47/27/47 48/28/48
s 7
f 49/6/49 50/5/50 10/7/51 9/8/52
s 5
f 5/147/53 51/143/54 52/151/55 6/152/56
s 9
f 53/22/57 54/21/58 14/23/59 13/24/60
s 3
f 55/100/61 56/99/62 3/102/63 2/103/64
f 50/107/65 57/105/66 58/106/67 10/108/68
f 34/111/69 59/112/70 60/110/71 35/109/72
s 5
f 61/135/73 62/136/74 33/141/75 36/142/76
f 63/149/77 64/145/78 49/146/79 9/150/80
s 2
f 65/69/81 63/70/82 9/65/83 12/66/84
s 6
f 38/165/85 66/159/86 67/160/87 39/166/88
s 4
f 68/173/89 69/174/90 37/175/91 40/176/92
s 1
f 10/61/93 58/58/94 70/57/95 11/62/96
s 3
f 57/105/66 55/100/61 2/103/64 58/106/67
s 5
f 61/135/73 27/133/27 26/132/26 62/136/74
f 6/152/56 52/151/55 64/145/78 63/149/77
s 2
f 7/72/7 6/71/6 63/70/82 65/69/81
s 6
f 66/159/86 29/153/29 32/156/32 67/160/87
s 1
f 70/57/95 58/58/94 2/54/2 1/53/1
s 4
f 71/118/97 72/117/98 1/121/99 4/122/100
s 10
f 73/30/101 74/29/102 16/31/103 15/32/104
s 6
f 75/163/105 76/162/106 8/167/107 7/169/108
f 77/164/109 75/163/105 7/169/108 65/170/110
f 78/171/111 77/164/109 65/170/110 12/172/112
s 8
f 79/14/113 78/13/114 12/15/115 11/16/116
s 4
f 70/125/117 80/124/118 79/129/119 11/130/120
f 1/121/99 72/117/98 80/124/118 70/125/117
s 15
f 60/33/121 59/34/122 69/35/123 68/36/124
s off
f 17/39/125 20/40/126 23/41/127 22/42/128
s 9
f 44/20/44 43/19/43 54/21/58 53/22/57
s 3
f 20/96/20 19/95/19 56/99/62 55/100/61
s 4
f 24/116/24 23/115/23 72/117/98 71/118/97
s 10
f 48/28/48 47/27/47 74/29/102 73/30/101
s 6
f 67/160/87 32/156/32 75/163/105 77/164/109
f 39/166/88 67/160/87 77/164/109 78/171/111
s 8
f 40/12/40 39/11/39 78/13/114 79/14/113
s 4
f 80/177/118 68/173/89 40/176/92 79/178/119
s 15
f 57/37/129 60/33/121 68/36/124 80/38/130
s 3
f 35/109/72 60/110/71 57/105/66 50/107/65
s 7
f 36/4/36 35/3/35 50/5/50 49/6/49
s 5
f 64/145/78 61/135/73 36/142/76 49/146/79
f 52/179/55 27/180/27 61/181/73 64/182/78
f 43/140/131 28/134/28 51/143/54 54/144/132
f 42/139/133 25/131/25 28/134/28 43/140/131
s 3
f 19/95/19 18/94/18 41/97/134 44/98/135
f 56/99/62 19/95/19 44/98/135 53/101/136
f 3/102/63 56/99/62 53/101/136 13/104/137
s 1
f 4/56/4 3/55/3 13/59/138 16/60/139
s 4
f 74/123/140 71/118/97 4/122/100 16/126/141
f 47/120/142 24/116/24 71/118/97 74/123/140
f 46/119/143 21/113/21 24/116/24 47/120/142
s 6
f 31/155/31 30/154/30 45/157/144 48/158/145
f 8/167/107 76/162/106 73/161/146 15/168/147
s 2
f 14/63/148 5/67/5 8/68/8 15/64/149
s 5
f 54/144/132 51/143/54 5/147/53 14/148/150
s off
f 75/45/151 32/46/152 27/47/153 52/48/154
f 55/127/155 57/128/156 80/124/157 72/117/158
f 20/40/159 55/43/160 72/44/161 23/41/162
f 59/73/163 34/74/164 37/75/165 69/76/166
f 34/74/167 33/77/168 38/78/169 37/75/170
f 42/85/171 41/87/172 46/88/173 45/86/174
f 41/87/175 18/89/176 21/90/177 46/88/178
f 18/89/179 17/91/180 22/92/181 21/90/182
f 52/183/183 51/184/184 76/185/185 75/186/186
f 26/81/187 25/83/188 30/84/189 29/82/190
f 25/83/191 42/85/192 45/86/193 30/84/194
f 62/79/195 26/81/196 29/82/197 66/80/198
f 33/77/199 62/79/200 66/80/201 38/78/202
f 28/134/203 27/133/204 32/137/205 31/138/206
f 76/49/207 51/50/208 28/51/209 31/52/210
f 48/158/211 73/161/212 76/162/213 31/155/214
