# This file uses meters as units for non-parametric coordinates.

mtllib Parede_Quarto_UPDATE.mtl
g default
v 168.796686 229.711196 403.912329
v -158.976468 229.711196 403.912329
v -171.943300 229.711196 417.014214
v 181.798624 229.711196 417.014214
v -158.976468 229.711196 -54.787742
v 168.796686 229.711196 -54.787742
v 181.798624 229.711196 -67.680166
v -171.943300 229.711196 -67.680166
v 168.796686 229.711196 316.940206
v 181.798624 229.711196 316.940179
v -158.976468 229.711196 225.564972
v -171.943300 229.711196 226.681316
v 168.796686 -0.829998 403.912329
v -158.976468 -0.829998 403.912329
v -158.976468 128.748519 403.912329
v 168.796686 128.748519 403.912329
v -171.943300 192.395916 417.014214
v 181.798624 192.395916 417.014214
v -158.976468 -0.829998 -54.787742
v 168.796686 -0.829998 -54.787742
v 168.796686 128.748519 -54.787742
v -158.976468 128.748519 -54.787742
v 181.798624 192.395916 -67.680166
v -171.943300 192.395916 -67.680166
v 168.796686 -0.829998 317.331653
v 168.796686 128.748519 317.331653
v 181.798624 192.395916 316.940179
v -158.976468 -0.829998 225.564972
v -158.976468 128.748519 225.564972
v -171.943300 192.395916 226.681316
v -158.976468 229.711196 87.813096
v -171.943300 229.711196 87.036744
v -171.943300 192.395916 87.036744
v 181.798624 192.395916 211.219521
v 181.798624 229.711196 211.219521
v 168.796686 229.711196 211.219534
v 168.796686 -0.829998 212.241702
v 168.796686 128.748519 212.241702
v -158.976468 -0.829998 87.813096
v -158.976468 128.748519 87.813096
v -171.943300 -0.829998 87.036744
v -171.943300 -0.829998 -67.680166
v 181.798624 -0.829998 210.197393
v 181.798624 -0.829998 -67.680166
v -158.976468 191.823254 87.813096
v -158.976468 191.823254 -54.787742
v -158.976468 191.823254 225.564972
v -158.976468 191.823254 403.912329
v 168.796686 191.823254 403.912329
v 168.796686 191.823254 316.940206
v 168.796686 191.823254 211.219534
v 168.796686 191.823254 -54.787742
v -171.943300 129.234642 226.681316
v -171.943300 129.234642 417.014188
v 181.798624 129.234642 417.014214
v 181.798624 129.234642 316.548732
v 181.798624 129.234642 210.197353
v 181.798624 129.234642 -67.680166
v -171.943300 129.234642 -67.680166
v -171.943300 129.234642 87.036744
v -171.943300 -0.829998 226.681316
v -171.943300 -0.829998 417.014214
v 181.798624 -0.829998 417.014241
v 181.798624 -0.829998 316.548785
v 108.926100 192.395916 -67.680166
v 108.926100 229.711196 -67.680166
v 108.920968 229.711196 -54.787742
v 108.920968 191.823254 -54.787742
v 108.920968 128.748519 -54.787742
v 108.920968 -0.829998 -54.787742
v 108.926100 -0.829998 -67.680166
v 108.926100 129.234642 -67.680166
v 1.279911 192.395916 -67.680166
v 1.279908 229.711196 -67.680166
v 1.530138 229.711196 -54.787742
v 1.530142 191.823254 -54.787729
v 1.530142 128.748519 -54.787729
v 1.530138 -0.829998 -54.787742
v 1.279908 -0.829998 -67.680166
v 1.279911 129.234642 -67.680166
vt 0.522034 0.687367
vt 0.592198 0.687367
vt 0.592198 0.815494
vt 0.522034 0.815494
vt 0.592198 0.877863
vt 0.521716 0.877863
vt 0.592198 0.915326
vt 0.521716 0.915326
vt 0.436041 0.877863
vt 0.436041 0.915326
vt 0.220472 0.877863
vt 0.220472 0.915326
vt 0.220472 0.815494
vt 0.436870 0.815494
vt 0.220472 0.687367
vt 0.436870 0.687367
vt 0.000000 0.419131
vt 0.062882 0.419131
vt 0.062882 0.456028
vt 0.000000 0.456028
vt 0.000000 0.356677
vt 0.063128 0.356677
vt 0.129312 0.419131
vt 0.129312 0.456028
vt 0.000000 0.228069
vt 0.063128 0.228069
vt 0.304561 0.419131
vt 0.304561 0.456028
vt 0.129955 0.356677
vt 0.304561 0.356677
vt 0.129955 0.228069
vt 0.304561 0.228069
vt 0.231336 0.459298
vt 0.375866 0.459298
vt 0.375866 0.587425
vt 0.231336 0.587425
vt 0.487499 0.459298
vt 0.487499 0.587425
vt 0.375866 0.649793
vt 0.231336 0.649793
vt 0.603061 0.459298
vt 0.603061 0.587425
vt 0.375866 0.687257
vt 0.231336 0.687257
vt 0.487499 0.649793
vt 0.603061 0.649793
vt 0.487499 0.687257
vt 0.603061 0.687257
vt 0.193402 0.191143
vt 0.313028 0.191135
vt 0.306689 0.228069
vt 0.186973 0.228052
vt 0.187179 0.128672
vt 0.306830 0.128650
vt 0.097259 0.191124
vt 0.099086 0.228031
vt 0.185699 0.000002
vt 0.305333 -0.000000
vt 0.104984 0.190497
vt 0.186376 0.190524
vt 0.000000 0.191120
vt 0.001801 0.228026
vt 0.097920 0.000003
vt 0.099398 0.128667
vt 0.002145 0.128658
vt 0.000664 0.000004
vt 0.914242 0.614548
vt 0.914242 0.913690
vt 0.912553 0.916406
vt 0.912553 0.616853
vt 0.914242 0.000000
vt 0.912553 0.000000
vt 0.909746 0.913688
vt 0.909751 0.614546
vt 0.911441 0.616852
vt 0.911435 0.916404
vt 0.909764 0.000000
vt 0.911453 0.000000
vt 0.907469 0.001570
vt 0.863742 0.001570
vt 0.862012 0.000000
vt 0.909204 0.000000
vt 0.863742 0.022939
vt 0.862012 0.022805
vt 0.907469 0.011991
vt 0.909204 0.011991
vt 0.863742 0.039444
vt 0.862012 0.039538
vt 0.907469 0.024658
vt 0.909204 0.024658
vt 0.863742 0.056531
vt 0.862012 0.058076
vt 0.907469 0.056531
vt 0.909204 0.058076
vt 0.885155 0.056531
vt 0.885121 0.058076
vt 0.899481 0.056531
vt 0.899482 0.058076
vt 0.757043 0.056506
vt 0.800771 0.056506
vt 0.802505 0.058076
vt 0.755313 0.058076
vt 0.800771 0.046132
vt 0.802505 0.046038
vt 0.757043 0.035136
vt 0.755314 0.035270
vt 0.757043 0.018631
vt 0.755314 0.018538
vt 0.755314 0.000000
vt 0.757043 0.001545
vt 0.778423 0.000000
vt 0.778456 0.001545
vt 0.788572 0.001545
vt 0.780584 0.001545
vt 0.780585 0.000000
vt 0.790307 0.000000
vt 0.790307 0.033295
vt 0.788572 0.033540
vt 0.899474 0.434374
vt 0.613104 0.434374
vt 0.613104 0.318060
vt 0.899474 0.318060
vt 0.613104 0.261441
vt 0.899474 0.261441
vt 0.613104 0.227432
vt 0.899474 0.227432
vt 0.603689 0.838141
vt 0.650881 0.838141
vt 0.650881 1.000000
vt 0.603689 1.000000
vt 0.603689 0.564171
vt 0.650881 0.564171
vt 0.603689 0.000000
vt 0.650881 0.000000
vt 0.847163 0.020489
vt 0.899475 0.020489
vt 0.899475 0.136804
vt 0.847163 0.136804
vt 0.899475 0.193422
vt 0.847163 0.193422
vt 0.899475 0.227432
vt 0.847163 0.227432
vt 0.753336 0.193422
vt 0.753336 0.227432
vt 0.613104 0.193422
vt 0.613104 0.227432
vt 0.613104 0.136804
vt 0.753336 0.136804
vt 0.613104 0.020489
vt 0.753336 0.020489
vt 0.226350 0.489774
vt 0.179721 0.489774
vt 0.179720 0.456028
vt 0.226349 0.456028
vt 0.226351 0.546895
vt 0.179722 0.546895
vt 0.110841 0.489774
vt 0.110840 0.456028
vt 0.226353 0.664519
vt 0.179724 0.664519
vt 0.179717 0.490384
vt 0.111001 0.490384
vt 0.000001 0.489774
vt 0.000000 0.456028
vt 0.110842 0.546895
vt 0.000001 0.546895
vt 0.110844 0.664519
vt 0.000004 0.664519
vt 0.922962 0.002486
vt 0.922712 0.276172
vt 0.920977 0.274062
vt 0.921228 0.000000
vt 0.925520 0.000000
vt 0.925518 0.273638
vt 0.923785 0.276123
vt 0.923786 0.002109
vt 0.918169 0.838258
vt 0.918170 0.276117
vt 0.919908 0.274008
vt 0.919907 0.838258
vt 0.918174 0.002484
vt 0.919908 0.000000
vt 0.915382 0.836456
vt 0.915361 0.562600
vt 0.917118 0.564711
vt 0.917118 0.838943
vt 0.915361 0.000000
vt 0.917118 0.000000
vt 0.791955 0.018169
vt 0.791816 0.000123
vt 0.794611 0.000000
vt 0.794752 0.018294
vt 0.800782 0.000047
vt 0.800576 0.013895
vt 0.797431 0.013848
vt 0.797637 0.000000
vn 0.000000 1.000000 0.000001
vn 0.000000 1.000000 0.000001
vn 0.000000 1.000000 0.000001
vn 0.000000 1.000000 0.000001
vn 0.000000 1.000000 -0.000001
vn 0.000000 1.000000 0.000000
vn 0.000000 1.000000 0.000000
vn 0.000000 1.000000 -0.000001
vn 0.000000 1.000000 0.000000
vn 0.000000 1.000000 0.000000
vn 0.000000 1.000000 0.000000
vn 0.000000 1.000000 0.000000
vn 0.000000 1.000000 0.000000
vn 0.000000 1.000000 0.000000
vn 0.000000 1.000000 0.000000
vn 0.000000 1.000000 0.000000
vn 0.000000 0.000000 -1.000000
vn 0.000000 0.000000 -1.000000
vn 0.000000 0.000000 -1.000000
vn 0.000000 0.000000 -1.000000
vn -0.000000 -0.000000 1.000000
vn -0.000000 -0.000000 1.000000
vn 0.000000 0.000000 1.000000
vn 0.000000 0.000000 1.000000
vn 0.000000 0.000000 1.000000
vn 0.000000 0.000000 1.000000
vn 0.000000 0.000000 1.000000
vn 0.000000 0.000000 1.000000
vn 0.000000 0.000000 -1.000000
vn 0.000000 0.000000 -1.000000
vn 0.000000 0.000000 -1.000000
vn 0.000000 0.000000 -1.000000
vn -1.000000 0.000000 0.000000
vn -1.000000 0.000000 0.000000
vn -1.000000 0.000000 0.000000
vn -1.000000 0.000000 0.000000
vn 1.000000 -0.000000 0.000000
vn 1.000000 -0.000000 0.000000
vn 1.000000 0.000000 0.000000
vn 1.000000 0.000000 0.000000
vn 1.000000 0.000000 0.000000
vn 1.000000 0.000000 0.000000
vn 1.000000 0.000000 0.000000
vn 1.000000 0.000000 0.000000
vn -1.000000 -0.000000 0.000000
vn -1.000000 -0.000000 0.000000
vn -1.000000 0.000000 0.000000
vn -1.000000 0.000000 0.000000
vn 0.000000 1.000000 0.000000
vn 0.000000 1.000000 0.000000
vn -1.000000 0.000000 0.000000
vn -1.000000 0.000000 0.000000
vn 1.000000 0.000000 0.000000
vn 1.000000 0.000000 0.000000
vn 0.000000 1.000000 0.000000
vn 0.000000 1.000000 0.000000
vn 1.000000 0.000000 0.000000
vn 1.000000 0.000000 0.000000
vn 0.000000 1.000000 0.000000
vn 0.000000 1.000000 0.000000
vn -1.000000 0.000000 0.000000
vn -1.000000 0.000000 0.000000
vn 1.000000 0.000000 0.000000
vn 1.000000 0.000000 0.000000
vn 0.000000 1.000000 0.000000
vn 0.000000 1.000000 0.000000
vn -1.000000 0.000000 0.000000
vn -1.000000 0.000000 0.000000
vn -1.000000 0.000000 0.000000
vn -1.000000 0.000000 0.000000
vn 1.000000 0.000000 0.000000
vn 1.000000 0.000000 0.000000
vn 1.000000 0.000000 0.000000
vn 1.000000 0.000000 0.000000
vn 1.000000 0.000000 0.000000
vn 1.000000 0.000000 0.000000
vn 1.000000 0.000000 0.000000
vn 1.000000 0.000000 0.000000
vn 1.000000 0.000000 0.000000
vn 1.000000 0.000000 0.000000
vn 0.000000 0.000000 -1.000000
vn 0.000000 0.000000 -1.000000
vn 0.000000 0.000000 -1.000000
vn 0.000000 0.000000 -1.000000
vn -1.000000 0.000000 0.000000
vn -1.000000 0.000000 0.000000
vn -1.000000 0.000000 0.000000
vn -1.000000 0.000000 0.000000
vn -1.000000 0.000000 0.000000
vn -1.000000 0.000000 0.000000
vn -1.000000 0.000000 0.000000
vn -1.000000 0.000000 0.000000
vn 0.000000 0.000000 1.000000
vn 0.000000 0.000000 1.000000
vn 0.000000 0.000000 1.000000
vn 0.000000 0.000000 1.000000
vn -1.000000 0.000000 0.000000
vn -1.000000 0.000000 0.000000
vn -0.000000 0.000000 1.000000
vn -0.000000 0.000000 1.000000
vn 1.000000 -0.000000 0.000000
vn 1.000000 -0.000000 0.000000
vn 1.000000 0.000000 0.000000
vn 1.000000 0.000000 0.000000
vn 0.000000 0.000000 -1.000000
vn 0.000000 0.000000 -1.000000
vn -1.000000 0.000000 0.000000
vn -1.000000 0.000000 0.000000
vn -1.000000 0.000000 0.000000
vn -1.000000 0.000000 0.000000
vn -1.000000 0.000000 0.000000
vn -0.000000 0.000000 1.000000
vn -0.000000 0.000000 1.000000
vn 1.000000 0.000000 0.000000
vn 1.000000 0.000000 0.000000
vn 1.000000 -0.000000 0.000000
vn 1.000000 -0.000000 0.000000
vn 0.000000 0.000000 -1.000000
vn 0.000000 0.000000 -1.000000
vn -1.000000 0.000000 0.000000
vn -0.085776 0.000000 -0.996314
vn -0.085776 0.000000 -0.996314
vn -0.085776 0.000000 -0.996314
vn -0.085776 0.000000 -0.996314
vn -0.059765 0.000000 0.998213
vn -0.059765 0.000000 0.998213
vn -0.059765 0.000000 0.998212
vn -0.059765 0.000000 0.998213
vn 0.000000 -1.000000 -0.000000
vn 0.000000 -1.000000 -0.000000
vn 0.000000 -1.000000 -0.000000
vn 0.000000 -1.000000 -0.000000
vn 0.000000 -1.000000 0.000000
vn 0.000000 -1.000000 0.000000
vn 0.000000 -1.000000 0.000000
vn 0.000000 -1.000000 0.000000
vn 0.000000 -1.000000 0.000000
vn 0.000000 -1.000000 0.000000
vn 0.000000 -1.000000 0.000000
vn 0.000000 -1.000000 0.000000
vn 0.000000 -1.000000 0.000000
vn 0.000000 -1.000000 0.000000
vn 0.000000 -1.000000 0.000000
vn 0.000000 -1.000000 0.000000
vn 0.000000 -1.000000 0.000000
vn 0.000000 -1.000000 0.000000
vn 0.000000 -1.000000 0.000000
vn 0.000000 -1.000000 0.000000
vn 0.000000 -1.000000 0.000000
vn 0.000000 -1.000000 0.000000
vn 0.000000 -1.000000 0.000000
vn 0.000000 -1.000000 0.000000
vn 0.000000 -1.000000 0.000000
vn 0.000000 -1.000000 0.000000
vn 0.000000 -1.000000 0.000000
vn 0.000000 -1.000000 0.000000
vn 0.037463 0.999298 0.000000
vn 0.037463 0.999298 0.000000
vn 0.037463 0.999298 0.000000
vn 0.037463 0.999298 0.000000
vn -0.044121 -0.999026 0.000000
vn -0.044121 -0.999026 0.000000
vn -0.044121 -0.999026 0.000000
vn -0.044121 -0.999026 0.000000
vn -0.060104 -0.000000 -0.998192
vn -0.060104 -0.000000 -0.998192
vn -0.060104 -0.000000 -0.998192
vn -0.060104 -0.000000 -0.998192
vn -0.030095 0.000000 -0.999547
vn -0.030095 0.000000 -0.999547
vn -0.030095 0.000000 -0.999547
vn -0.030095 0.000000 -0.999547
vn 0.044002 -0.999031 0.000000
vn 0.044002 -0.999031 0.000000
vn 0.044002 -0.999031 0.000000
vn 0.044002 -0.999031 0.000000
vn 0.078376 -0.000000 0.996924
vn 0.078376 -0.000000 0.996924
vn 0.078376 -0.000000 0.996924
vn 0.078376 -0.000000 0.996924
vn 0.155325 0.000000 0.987863
vn 0.155325 0.000000 0.987863
vn 0.155325 0.000000 0.987863
vn 0.155325 0.000000 0.987863
vn 0.000000 0.000000 -1.000000
vn 0.000000 0.000000 -1.000000
vn 0.000000 1.000000 -0.000001
vn 0.000000 1.000000 -0.000001
vn -0.000000 0.000000 1.000000
vn -0.000000 0.000000 1.000000
vn 0.000000 0.000000 -1.000000
vn 0.000000 0.000000 -1.000000
vn 0.000000 1.000000 -0.000000
vn 0.000000 1.000000 -0.000000
vn -0.000000 0.000000 1.000000
vn -0.000000 0.000000 1.000000
vn -0.000000 -0.000000 1.000000
vn -0.000000 -0.000000 1.000000
vn -0.000000 -0.000000 1.000000
vn -0.000000 -0.000000 1.000000
vn 0.000000 -1.000000 0.000000
vn 0.000000 -1.000000 0.000000
vn 0.000000 -1.000000 0.000000
vn 0.000000 -1.000000 0.000000
vn 0.000000 0.000000 -1.000000
vn 0.000000 0.000000 -1.000000
vn 0.000000 0.000000 -1.000000
vn 0.000000 0.000000 -1.000000
vn 0.000000 -0.999015 -0.044376
vn 0.000000 -0.999015 -0.044376
vn 0.000000 -0.999015 -0.044376
vn 0.000000 -0.999015 -0.044376
vn -1.000000 0.000000 -0.000398
vn -1.000000 0.000000 -0.000398
vn -1.000000 0.000000 -0.000398
vn -1.000000 0.000000 -0.000398
vn -1.000000 0.000000 -0.000398
vn -1.000000 0.000000 -0.000398
vn -1.000000 0.000000 -0.000398
vn -1.000000 0.000000 -0.000398
vn 0.999812 0.000000 -0.019405
vn 0.999812 0.000000 -0.019405
vn 0.999812 0.000000 -0.019405
vn 0.999812 0.000000 -0.019405
vn 0.999812 -0.000000 -0.019405
vn 0.999812 -0.000000 -0.019405
vn 0.999812 -0.000000 -0.019405
vn 0.999812 -0.000000 -0.019405
s off
g parede_quarto
usemtl initialShadingGroup
f 1/79/1 2/80/2 3/81/3 4/82/4
s 1
f 67/97/5 6/93/6 7/94/7 66/98/8
s 2
f 9/85/9 1/79/10 4/82/11 10/86/12
s 3
f 2/80/13 11/83/14 12/84/15 3/81/16
s 4
f 13/119/17 14/120/18 15/121/19 16/122/20
s 5
f 17/127/21 18/128/22 4/129/23 3/130/24
s 6
f 70/135/25 20/136/26 21/137/27 69/138/28
s 7
f 23/151/29 65/152/30 66/153/31 7/154/32
s 8
f 25/1/33 13/2/34 16/3/35 26/4/36
s 9
f 18/17/37 27/18/38 10/19/39 4/20/40
s 10
f 14/33/41 28/34/42 29/35/43 15/36/44
s 11
f 30/49/45 17/50/46 3/51/47 12/52/48
s 3
f 11/83/14 31/87/49 32/88/50 12/84/15
s 11
f 33/55/51 30/49/45 12/52/48 32/56/52
s 9
f 10/19/39 27/18/38 34/23/53 35/24/54
s 2
f 36/89/55 9/85/9 10/86/12 35/90/56
s 10
f 29/35/43 28/34/42 39/37/57 40/38/58
s 3
f 31/87/49 5/91/59 8/92/60 32/88/50
s 11
f 24/61/61 33/55/51 32/56/52 8/62/62
s 9
f 35/24/54 34/23/53 23/27/63 7/28/64
s 2
f 6/93/65 36/89/55 35/90/56 7/94/66
s 8
f 20/15/67 37/16/68 38/14/69 21/13/70
s 10
f 40/38/58 39/37/57 19/41/71 22/42/72
f 31/47/73 45/45/74 46/46/75 5/48/76
f 11/43/77 47/39/78 45/45/74 31/47/73
f 48/40/79 47/39/78 11/43/77 2/44/80
s 4
f 49/124/81 48/123/82 2/125/83 1/126/84
s 8
f 50/6/85 49/5/86 1/7/87 9/8/88
f 51/9/89 50/6/85 9/8/88 36/10/90
f 52/11/91 51/9/89 36/10/90 6/12/92
s 6
f 68/140/93 52/139/94 6/141/95 67/142/96
s 10
f 45/45/74 40/38/58 22/42/72 46/46/75
f 15/36/44 29/35/43 47/39/78 48/40/79
s 4
f 16/122/20 15/121/19 48/123/82 49/124/81
s 8
f 26/4/36 16/3/35 49/5/86 50/6/85
f 21/13/70 38/14/69 51/9/89 52/11/91
s 6
f 69/138/28 21/137/27 52/139/94 68/140/93
s 11
f 53/53/97 54/54/98 17/50/46 30/49/45
s 5
f 54/131/99 55/132/100 18/128/22 17/127/21
s 9
f 55/21/101 56/22/102 27/18/38 18/17/37
f 23/27/63 34/23/53 57/29/103 58/30/104
s 7
f 58/155/105 72/156/106 65/152/30 23/151/29
s 11
f 59/65/107 60/64/108 33/55/51 24/61/61
f 41/63/109 61/57/110 53/53/97 60/64/108
f 61/57/110 62/58/111 54/54/98 53/53/97
s 5
f 62/133/112 63/134/113 55/132/100 54/131/99
s 9
f 63/25/114 64/26/115 56/22/102 55/21/101
f 58/30/104 57/29/103 43/31/116 44/32/117
s 7
f 44/159/118 71/160/119 72/156/106 58/155/105
s 11
f 42/66/120 41/63/109 60/64/108 59/65/107
s off
f 47/169/121 29/170/122 53/171/123 30/172/124
f 40/173/125 45/174/126 33/175/127 60/176/128
f 14/99/129 13/100/130 63/101/131 62/102/132
f 28/105/133 14/99/134 62/102/135 61/106/136
f 39/107/137 28/105/138 61/106/139 41/108/140
f 41/108/141 42/109/142 19/110/143 39/107/144
f 20/113/145 70/114/146 71/115/147 44/116/148
f 44/116/149 43/117/150 37/118/151 20/113/152
f 13/100/153 25/103/154 64/104/155 63/101/156
f 29/189/157 40/190/158 60/191/159 53/192/160
f 30/49/161 33/55/162 45/59/163 47/60/164
f 25/177/165 26/178/166 56/179/167 64/180/168
f 26/178/169 50/181/170 27/182/171 56/179/172
f 34/193/173 27/194/174 50/195/175 51/196/176
f 51/183/177 38/184/178 57/185/179 34/186/180
f 38/184/181 37/187/182 43/188/183 57/185/184
s 7
f 65/152/30 73/157/185 74/158/186 66/153/31
s 1
f 75/95/187 67/97/5 66/98/8 74/96/188
s 6
f 76/143/189 68/140/93 67/142/96 75/144/190
s 7
f 73/157/185 24/163/191 8/164/192 74/158/186
s 1
f 5/91/193 75/95/187 74/96/188 8/92/194
s 6
f 46/145/195 76/143/189 75/144/190 5/146/196
f 22/147/197 77/148/198 76/143/189 46/145/195
f 19/149/199 78/150/200 77/148/198 22/147/197
s off
f 79/111/201 78/112/202 19/110/203 42/109/204
s 7
f 80/165/205 79/167/206 42/168/207 59/166/208
f 73/157/185 80/165/205 59/166/208 24/163/191
s off
f 73/157/209 65/152/210 68/161/211 76/162/212
f 69/67/213 68/68/214 65/69/215 72/70/216
f 70/71/217 69/67/218 72/70/219 71/72/220
f 76/73/221 77/74/222 80/75/223 73/76/224
f 77/74/225 78/77/226 79/78/227 80/75/228
